<?xml version="1.0" encoding="UTF-8"?>
<svg version="1.1" xmlns="http://www.w3.org/2000/svg" width="1080" height="1080">
<path d="M0 0 C1.28810577 0.00149048 2.57621155 0.00298096 3.90335083 0.0045166 C23.76407988 0.04571665 43.23473119 0.71221829 62.9375 3.3125 C64.73574219 3.53728027 64.73574219 3.53728027 66.5703125 3.76660156 C146.28442764 13.81621297 224.63980553 41.08474745 291.9375 85.3125 C292.92387451 85.95566162 292.92387451 85.95566162 293.93017578 86.61181641 C298.29953082 89.46352432 302.63005013 92.36820919 306.9375 95.3125 C307.60990723 95.77092285 308.28231445 96.2293457 308.97509766 96.70166016 C319.11648723 103.64669056 328.75503804 111.0420957 338.21142578 118.890625 C340.55027471 120.81728075 342.93050158 122.68960265 345.3125 124.5625 C349.5465875 127.93698249 353.56791951 131.51099129 357.56640625 135.16015625 C359.68253111 137.08105377 361.83059269 138.95239432 364 140.8125 C367.75338446 144.07499917 371.22289364 147.57911107 374.7109375 151.12109375 C376.76149377 153.13927281 378.86852831 155.01563017 381.0625 156.875 C384.39148729 159.73216232 387.2013498 162.81182249 390.03125 166.15625 C392.18891094 168.59688287 394.4805268 170.85060639 396.8125 173.125 C401.14378637 177.40378593 404.99618797 181.91368108 408.79296875 186.66796875 C410.75189536 189.08362141 412.7795442 191.39047731 414.875 193.6875 C419.46099678 198.79215117 423.59225214 204.2268241 427.72021484 209.70117188 C428.83412166 211.17565743 429.957598 212.64290103 431.08203125 214.109375 C442.60902408 229.25058265 453.3181518 244.89273558 462.9375 261.3125 C463.41396973 262.12267578 463.89043945 262.93285156 464.38134766 263.76757812 C501.85988584 327.73424297 526.2419056 397.42005087 536.25 470.9375 C536.39719482 472.01104736 536.54438965 473.08459473 536.69604492 474.19067383 C539.49058116 496.19866869 540.31387522 518.20796473 540.25 540.375 C540.24850952 541.66310577 540.24701904 542.95121155 540.2454834 544.27835083 C540.20428335 564.13907988 539.53778171 583.60973119 536.9375 603.3125 C536.78764648 604.51132812 536.63779297 605.71015625 536.48339844 606.9453125 C526.43378703 686.65942764 499.16525255 765.01480553 454.9375 832.3125 C454.50872559 832.97008301 454.07995117 833.62766602 453.63818359 834.30517578 C450.78647568 838.67453082 447.88179081 843.00505013 444.9375 847.3125 C444.47907715 847.98490723 444.0206543 848.65731445 443.54833984 849.35009766 C436.60330944 859.49148723 429.2079043 869.13003804 421.359375 878.58642578 C419.43271925 880.92527471 417.56039735 883.30550158 415.6875 885.6875 C412.31301751 889.9215875 408.73900871 893.94291951 405.08984375 897.94140625 C403.16894623 900.05753111 401.29760568 902.20559269 399.4375 904.375 C396.17500083 908.12838446 392.67088893 911.59789364 389.12890625 915.0859375 C387.11072719 917.13649377 385.23436983 919.24352831 383.375 921.4375 C380.51783768 924.76648729 377.43817751 927.5763498 374.09375 930.40625 C371.65311713 932.56391094 369.39939361 934.8555268 367.125 937.1875 C362.84621407 941.51878637 358.33631892 945.37118797 353.58203125 949.16796875 C351.16637859 951.12689536 348.85952269 953.1545442 346.5625 955.25 C341.45784883 959.83599678 336.0231759 963.96725214 330.54882812 968.09521484 C329.07434257 969.20912166 327.60709897 970.332598 326.140625 971.45703125 C310.99941735 982.98402408 295.35726442 993.6931518 278.9375 1003.3125 C278.12732422 1003.78896973 277.31714844 1004.26543945 276.48242188 1004.75634766 C212.51575703 1042.23488584 142.82994913 1066.6169056 69.3125 1076.625 C68.23895264 1076.77219482 67.16540527 1076.91938965 66.05932617 1077.07104492 C44.05133131 1079.86558116 22.04203527 1080.68887522 -0.125 1080.625 C-1.41310577 1080.62350952 -2.70121155 1080.62201904 -4.02835083 1080.6204834 C-23.88907988 1080.57928335 -43.35973119 1079.91278171 -63.0625 1077.3125 C-64.86074219 1077.08771973 -64.86074219 1077.08771973 -66.6953125 1076.85839844 C-146.40942764 1066.80878703 -224.76480553 1039.54025255 -292.0625 995.3125 C-292.72008301 994.88372559 -293.37766602 994.45495117 -294.05517578 994.01318359 C-298.42453082 991.16147568 -302.75505013 988.25679081 -307.0625 985.3125 C-307.73490723 984.85407715 -308.40731445 984.3956543 -309.10009766 983.92333984 C-319.24148723 976.97830944 -328.88003804 969.5829043 -338.33642578 961.734375 C-340.67527471 959.80771925 -343.05550158 957.93539735 -345.4375 956.0625 C-349.6715875 952.68801751 -353.69291951 949.11400871 -357.69140625 945.46484375 C-359.80753111 943.54394623 -361.95559269 941.67260568 -364.125 939.8125 C-367.87838446 936.55000083 -371.34789364 933.04588893 -374.8359375 929.50390625 C-376.88649377 927.48572719 -378.99352831 925.60936983 -381.1875 923.75 C-384.51648729 920.89283768 -387.3263498 917.81317751 -390.15625 914.46875 C-392.31391094 912.02811713 -394.6055268 909.77439361 -396.9375 907.5 C-401.26878637 903.22121407 -405.12118797 898.71131892 -408.91796875 893.95703125 C-410.87689536 891.54137859 -412.9045442 889.23452269 -415 886.9375 C-419.58599678 881.83284883 -423.71725214 876.3981759 -427.84521484 870.92382812 C-428.95912166 869.44934257 -430.082598 867.98209897 -431.20703125 866.515625 C-442.73402408 851.37441735 -453.4431518 835.73226442 -463.0625 819.3125 C-463.53896973 818.50232422 -464.01543945 817.69214844 -464.50634766 816.85742188 C-501.98488584 752.89075703 -526.3669056 683.20494913 -536.375 609.6875 C-536.52219482 608.61395264 -536.66938965 607.54040527 -536.82104492 606.43432617 C-539.61558116 584.42633131 -540.43887522 562.41703527 -540.375 540.25 C-540.37350952 538.96189423 -540.37201904 537.67378845 -540.3704834 536.34664917 C-540.32928335 516.48592012 -539.66278171 497.01526881 -537.0625 477.3125 C-536.91264648 476.11367188 -536.76279297 474.91484375 -536.60839844 473.6796875 C-526.55878703 393.96557236 -499.29025255 315.61019447 -455.0625 248.3125 C-454.63372559 247.65491699 -454.20495117 246.99733398 -453.76318359 246.31982422 C-450.91147568 241.95046918 -448.00679081 237.61994987 -445.0625 233.3125 C-444.60407715 232.64009277 -444.1456543 231.96768555 -443.67333984 231.27490234 C-436.72830944 221.13351277 -429.3329043 211.49496196 -421.484375 202.03857422 C-419.55771925 199.69972529 -417.68539735 197.31949842 -415.8125 194.9375 C-412.43801751 190.7034125 -408.86400871 186.68208049 -405.21484375 182.68359375 C-403.29394623 180.56746889 -401.42260568 178.41940731 -399.5625 176.25 C-396.30000083 172.49661554 -392.79588893 169.02710636 -389.25390625 165.5390625 C-387.23572719 163.48850623 -385.35936983 161.38147169 -383.5 159.1875 C-380.64283768 155.85851271 -377.56317751 153.0486502 -374.21875 150.21875 C-371.77811713 148.06108906 -369.52439361 145.7694732 -367.25 143.4375 C-362.97121407 139.10621363 -358.46131892 135.25381203 -353.70703125 131.45703125 C-351.29137859 129.49810464 -348.98452269 127.4704558 -346.6875 125.375 C-341.58284883 120.78900322 -336.1481759 116.65774786 -330.67382812 112.52978516 C-329.19934257 111.41587834 -327.73209897 110.292402 -326.265625 109.16796875 C-311.12441735 97.64097592 -295.48226442 86.9318482 -279.0625 77.3125 C-278.25232422 76.83603027 -277.44214844 76.35956055 -276.60742188 75.86865234 C-212.64075703 38.39011416 -142.95494913 14.0080944 -69.4375 4 C-68.36395264 3.85280518 -67.29040527 3.70561035 -66.18432617 3.55395508 C-44.17633131 0.75941884 -22.16703527 -0.06387522 0 0 Z " fill="#7E5FA5" transform="translate(540.0625,-0.31250000000000006)"/>
<path d="M0 0 C0 -5.61 0 -11.22 0 -17 C23.1 -17 46.2 -17 70 -17 C70 31.84 70 80.68 70 131 C77.59 131 85.18 131 93 131 C94 132 94 132 94.12025452 134.66383362 C94.11803391 135.85186081 94.11581329 137.039888 94.11352539 138.26391602 C94.11367142 138.91755127 94.11381744 139.57118652 94.1139679 140.24462891 C94.11326883 142.41442128 94.10547678 144.58412879 94.09765625 146.75390625 C94.09579205 148.25463311 94.09436816 149.75536057 94.09336853 151.25608826 C94.08954352 155.21318226 94.0797134 159.17023978 94.06866455 163.12731934 C94.05845006 167.16234849 94.05387083 171.19738353 94.04882812 175.23242188 C94.03809111 183.15496469 94.0210149 191.07747781 94 199 C88.07760399 199.09964557 82.15570706 199.17183264 76.23266602 199.21972656 C74.22216276 199.23971393 72.21171667 199.26691326 70.20141602 199.30175781 C53.01576284 199.59195508 40.28358792 197.82221979 27.25 185.6875 C20.87836466 178.96270243 17.89556014 170.65432779 15 162 C14.52691406 162.67804688 14.05382812 163.35609375 13.56640625 164.0546875 C-0.91827394 184.4405337 -18.90479016 198.15189698 -43.87182617 202.57446289 C-49.34647261 203.31919939 -54.79488376 203.33978406 -60.3125 203.3125 C-61.50584961 203.30686035 -62.69919922 203.3012207 -63.92871094 203.29541016 C-91.47803229 202.91539357 -114.19717838 190.3929967 -133.5625 171.5 C-139.71316715 165.00762912 -144.52659936 157.70330003 -149 150 C-149.35481445 149.38914551 -149.70962891 148.77829102 -150.07519531 148.14892578 C-164.25294706 123.16440203 -168.49013773 91.39281394 -161.96875 63.375 C-153.00378285 32.14221123 -135.06842585 6.49314397 -106.67578125 -9.921875 C-71.58699516 -28.64656359 -31.34623242 -23.50967432 0 0 Z " fill="#FED100" transform="translate(615,338)"/>
<path d="M0 0 C0.61601074 0.19867676 1.23202148 0.39735352 1.86669922 0.60205078 C13.96092541 4.53525223 24.0314332 10.02514656 34 18 C34 12.06 34 6.12 34 0 C57.1 0 80.2 0 104 0 C104 49.17 104 98.34 104 149 C111.59 149 119.18 149 127 149 C127 171.11 127 193.22 127 216 C119.94625 216.0825 112.8925 216.165 105.625 216.25 C103.41893066 216.28641602 101.21286133 216.32283203 98.93994141 216.36035156 C97.16049162 216.37205119 95.38103099 216.38223998 93.6015625 216.390625 C92.70268311 216.41108887 91.80380371 216.43155273 90.87768555 216.45263672 C79.87899424 216.45859645 69.98857967 211.69939273 62.05859375 204.15234375 C55.53704537 197.06737867 51.67221967 189.1898286 49 180 C48.48953125 180.72703125 47.9790625 181.4540625 47.453125 182.203125 C31.9363551 203.66248763 12.75812312 216.15023483 -13.65625 220.67919922 C-38.53190285 224.0840542 -63.65932759 217.09254961 -84.09765625 202.83984375 C-86.84667188 200.66040834 -89.43268805 198.390521 -92 196 C-92.72413086 195.33726074 -92.72413086 195.33726074 -93.46289062 194.66113281 C-110.69094007 178.77107693 -123.11965558 158.07554155 -128 135 C-128.25728882 133.86038818 -128.25728882 133.86038818 -128.51977539 132.69775391 C-130.179868 124.69460979 -130.44122891 116.77857108 -130.4375 108.625 C-130.43823517 107.92334717 -130.43897034 107.22169434 -130.43972778 106.4987793 C-130.3537339 75.12036809 -117.6342422 47.59440509 -96.25 24.8125 C-82.10856986 11.44242059 -64.40998365 0.96983356 -45 -2 C-43.97648438 -2.18046875 -42.95296875 -2.3609375 -41.8984375 -2.546875 C-28.2535989 -4.13284822 -13.08509694 -4.47425895 0 0 Z " fill="#FED100" transform="translate(581,555)"/>
<path d="M0 0 C16.41834644 11.48981887 20.72696724 33.30564599 26.68359375 51.296875 C27.92490329 55.01402447 29.16911955 58.73019169 30.41366577 62.44625854 C31.21390468 64.8378223 32.01230004 67.2300038 32.80874634 69.62283325 C35.26415933 76.98841995 37.78097936 84.32724512 40.46839905 91.61177063 C41.4802404 94.40021046 42.12109375 96.4875325 42.12109375 99.484375 C42.78109375 99.484375 43.44109375 99.484375 44.12109375 99.484375 C44.22921387 98.94218323 44.33733398 98.39999146 44.44873047 97.84136963 C45.64555566 92.12659059 47.28647966 86.71380332 49.24609375 81.21875 C49.54927017 80.35485153 49.85244659 79.49095306 50.16481018 78.60087585 C51.14526421 75.8102616 52.13285708 73.02224172 53.12109375 70.234375 C54.48607108 66.36648242 55.84852633 62.49770334 57.2109375 58.62890625 C57.54802231 57.67343399 57.88510712 56.71796173 58.23240662 55.73353577 C60.24287724 50.02345367 62.20955753 44.30120824 64.125 38.55859375 C64.56828556 37.23793095 65.01164225 35.91729202 65.45507812 34.59667969 C66.24563185 32.23193113 67.02758995 29.86428249 67.79882812 27.49316406 C72.31921525 14.05096024 78.44304425 4.05374332 91.30859375 -2.390625 C101.05843032 -7.19172013 111.73545403 -8.24027817 122.37109375 -5.453125 C133.56578302 -1.43642586 141.86130616 5.61094738 147.51171875 16.0546875 C151.04036393 23.89363976 153.16504076 32.25539882 155.453125 40.51953125 C157.25927394 47.03281246 159.18809175 53.50781247 161.12109375 59.984375 C163.76709959 68.87630133 166.36824712 77.77869775 168.90234375 86.703125 C170.77866203 93.30573689 172.69377592 99.89648091 174.62109375 106.484375 C177.83459806 117.47113391 180.98998405 128.47387936 184.12109375 139.484375 C184.75200928 139.50943115 185.3829248 139.5344873 186.03295898 139.56030273 C188.875062 139.67591637 191.71680458 139.79879816 194.55859375 139.921875 C195.55181641 139.96119141 196.54503906 140.00050781 197.56835938 140.04101562 C198.51259766 140.08291016 199.45683594 140.12480469 200.4296875 140.16796875 C201.30423584 140.20462646 202.17878418 140.24128418 203.07983398 140.27905273 C205.12109375 140.484375 205.12109375 140.484375 206.12109375 141.484375 C206.21531115 143.60118817 206.23852136 145.72118258 206.23461914 147.84008789 C206.23476517 148.50347672 206.23491119 149.16686554 206.23506165 149.85035706 C206.23436256 152.05261456 206.2265704 154.25478845 206.21875 156.45703125 C206.21688581 157.98017836 206.21546191 159.50332607 206.21446228 161.026474 C206.21063721 165.04275151 206.20080703 169.05899308 206.1897583 173.07525635 C206.17954394 177.17060866 206.17496461 181.26596676 206.16992188 185.36132812 C206.15918475 193.40236028 206.14210847 201.44336317 206.12109375 209.484375 C200.21700831 209.5841321 194.31342618 209.65625895 188.40869141 209.70410156 C186.40502361 209.7240706 184.40141297 209.75125563 182.39794922 209.78613281 C164.6804882 210.08657854 151.38412962 208.23035711 137.93359375 195.796875 C123.33330993 180.30033613 120.83890188 154.76950915 115.81152344 134.78222656 C113.62642908 126.12797299 111.33001854 117.5302654 108.73558044 108.98858643 C107.68332357 105.50741727 106.75657687 102.0665817 106.12109375 98.484375 C105.13109375 98.154375 104.14109375 97.824375 103.12109375 97.484375 C103.00806789 98.03440689 102.89504204 98.58443878 102.77859116 99.15113831 C101.62361 104.57928916 100.1658642 109.80957002 98.41894531 115.07421875 C98.0233139 116.28345505 98.0233139 116.28345505 97.61968994 117.51712036 C96.75530384 120.15369258 95.88414267 122.78795231 95.01171875 125.421875 C94.71213005 126.32912323 94.41254135 127.23637146 94.10387421 128.17111206 C92.51975949 132.96824038 90.93056137 137.76364757 89.33691406 142.55761719 C87.69962435 147.48595274 86.07911882 152.41963485 84.46249771 157.3547821 C83.20873807 161.17214589 81.94279723 164.98539013 80.67357635 168.79763794 C80.07110939 170.61406683 79.47310701 172.4319833 78.87982941 174.25143433 C74.10567125 188.86966884 69.80463348 199.40942104 55.93359375 207.296875 C47.65773822 210.79112511 39.00383578 210.55376329 30.74609375 207.234375 C21.78572055 203.32175921 16.65196963 197.43625624 12.86328125 188.52636719 C7.80375242 174.9724348 3.28283625 161.23460965 -1.27069092 147.50463867 C-2.16373704 144.81469176 -3.06014159 142.12586934 -3.95655251 139.43704224 C-16.87890625 100.6688346 -16.87890625 100.6688346 -16.87890625 97.484375 C-17.86890625 97.484375 -18.85890625 97.484375 -19.87890625 97.484375 C-20.15089844 98.7321875 -20.42289062 99.98 -20.703125 101.265625 C-23.69743743 114.72557199 -27.05804719 128.12194614 -31.05395508 141.32006836 C-32.62509807 146.5314346 -34.02095558 151.77629261 -35.37890625 157.046875 C-44.76199708 193.0807283 -44.76199708 193.0807283 -60.43359375 203.12109375 C-62.89501729 204.39781343 -65.28726797 205.49619638 -67.87890625 206.484375 C-68.49675995 206.73089813 -69.11461365 206.97742126 -69.75119019 207.23141479 C-75.68224377 209.43183811 -80.87468201 209.88625951 -87.1640625 209.77734375 C-88.1057579 209.77309891 -89.04745331 209.76885406 -90.01768494 209.76448059 C-92.99256343 209.74783716 -95.96673639 209.71021272 -98.94140625 209.671875 C-100.97199535 209.6568096 -103.00259518 209.64312446 -105.03320312 209.63085938 C-109.98203806 209.59798078 -114.930353 209.5462994 -119.87890625 209.484375 C-119.90203214 200.6355511 -119.91982259 191.78673753 -119.93071842 182.93789005 C-119.93594671 178.82943215 -119.94304338 174.72099486 -119.9543457 170.61254883 C-119.9651765 166.65090672 -119.97118349 162.68928448 -119.97378349 158.72762871 C-119.97563739 157.21289189 -119.97925735 155.69815621 -119.98463631 154.18342781 C-119.99184932 152.06895687 -119.99289708 149.95456906 -119.99243164 147.84008789 C-119.99465225 146.63429581 -119.99687286 145.42850372 -119.99916077 144.18617249 C-119.87890625 141.484375 -119.87890625 141.484375 -118.87890625 140.484375 C-117.24417743 140.39737158 -115.6057657 140.37736437 -113.96875 140.38671875 C-112.97939453 140.38994141 -111.99003906 140.39316406 -110.97070312 140.39648438 C-109.92978516 140.40486328 -108.88886719 140.41324219 -107.81640625 140.421875 C-106.24922852 140.42864258 -106.24922852 140.42864258 -104.65039062 140.43554688 C-102.05983965 140.44737587 -99.46940066 140.46385811 -96.87890625 140.484375 C-96.78867188 139.59621094 -96.6984375 138.70804688 -96.60546875 137.79296875 C-95.75883817 131.90342887 -93.919864 126.24548977 -92.25390625 120.546875 C-91.89490234 119.30558838 -91.53589844 118.06430176 -91.16601562 116.78540039 C-90.07484438 113.01705879 -88.97727012 109.25062546 -87.87890625 105.484375 C-87.27701402 103.40894976 -86.67542901 101.33343539 -86.07421875 99.2578125 C-83.72296658 91.1553154 -81.34971717 83.05954641 -78.9453125 74.97265625 C-78.61635986 73.86623779 -78.28740723 72.75981934 -77.94848633 71.61987305 C-77.27839795 69.36723899 -76.60766473 67.11479665 -75.9362793 64.86254883 C-74.17165839 58.9223548 -72.44410564 52.97406414 -70.76953125 47.0078125 C-70.42140381 45.77063477 -70.07327637 44.53345703 -69.71459961 43.25878906 C-69.05626559 40.91071534 -68.40301695 38.56120675 -67.75610352 36.20996094 C-64.16760005 23.41740786 -60.80080205 12.71911248 -50.87890625 3.484375 C-49.91984375 2.58912109 -49.91984375 2.58912109 -48.94140625 1.67578125 C-35.06419001 -9.91747649 -14.94670048 -9.05860635 0 0 Z " fill="#FED101" transform="translate(241.87890625,327.515625)"/>
<path d="M0 0 C6.20722892 -0.09959145 12.41398288 -0.17180805 18.62182617 -0.21972656 C20.72933057 -0.23972278 22.83678034 -0.26692893 24.9440918 -0.30175781 C40.48774936 -0.5520464 52.34184298 0.10931077 65 10 C65.61617188 10.47824219 66.23234375 10.95648437 66.8671875 11.44921875 C78.17409132 21.42442057 80.88860773 37.17387163 84.27490234 51.10986328 C85.36142111 55.44057342 86.61498064 59.71720267 87.875 64 C90.52946255 73.12135662 92.94129902 82.30190383 95.3125 91.5 C95.57797638 92.52746338 95.57797638 92.52746338 95.84881592 93.57568359 C99.03459853 105.9223083 99.03459853 105.9223083 100 111 C100.99 111 101.98 111 103 111 C103.11390674 110.44677315 103.22781347 109.8935463 103.34517193 109.32355499 C104.4808527 103.9912664 105.90007798 98.85409067 107.6262207 93.68554688 C107.8818277 92.90865005 108.13743469 92.13175323 108.40078735 91.33131409 C109.23774401 88.7922083 110.08132102 86.25536929 110.92578125 83.71875 C111.51642048 81.93717661 112.10692829 80.15555965 112.6973114 78.37390137 C113.93230241 74.65102946 115.17096834 70.92940336 116.41186523 67.20849609 C117.9945429 62.46076809 119.56478773 57.70903027 121.13187885 52.95613861 C122.34651912 49.27873028 123.56941112 45.60410465 124.79457664 41.93019104 C125.37672654 40.18022205 125.9559871 38.42928893 126.53219032 36.67735291 C135.59552938 9.15503681 135.59552938 9.15503681 148.1875 2.625 C156.19463739 -1.12579755 166.01245713 -1.60150459 174.40625 1.09375 C186.01816911 6.60647927 191.58426509 14.08301362 196.11071777 25.89959717 C197.22203598 29.07503926 198.28390566 32.26280854 199.328125 35.4609375 C199.72143005 36.64555573 200.11473511 37.83017395 200.5199585 39.0506897 C201.56092421 42.19122202 202.59524197 45.33383854 203.62640381 48.4776001 C204.64459465 51.57562288 205.672542 54.67040602 206.69921875 57.765625 C209.15141029 65.17103782 211.57854075 72.58449062 214 80 C214.43473062 81.3275421 214.86954626 82.65505637 215.30444336 83.98254395 C216.57876673 87.87444204 217.84460963 91.76904763 219.109375 95.6640625 C219.50094788 96.85977875 219.89252075 98.055495 220.29595947 99.28744507 C220.65172058 100.3883548 221.00748169 101.48926453 221.37402344 102.62353516 C221.68901794 103.59231598 222.00401245 104.5610968 222.32855225 105.55923462 C223 108 223 108 223 111 C223.99 111 224.98 111 226 111 C226.21914063 110.02804687 226.43828125 109.05609375 226.6640625 108.0546875 C228.7733171 98.83267145 231.1269846 89.69980839 233.64697266 80.58178711 C235.23127736 74.84201821 236.76751039 69.09286973 238.25463867 63.32714844 C239.48755422 58.5473291 240.74014221 53.77278167 242 49 C242.25281738 48.04013184 242.50563477 47.08026367 242.76611328 46.09130859 C243.51760968 43.265205 244.28716648 40.44464634 245.0625 37.625 C245.39411133 36.36901001 245.39411133 36.36901001 245.73242188 35.08764648 C249.43641762 21.84212566 257.34210199 11.12888177 269.34765625 4.25390625 C276.89651343 0.68515345 282.53504563 -0.42629895 290.84375 -0.29296875 C292.35829773 -0.28660149 292.35829773 -0.28660149 293.90344238 -0.28010559 C297.10257557 -0.26342214 300.30105983 -0.22578903 303.5 -0.1875 C305.67967835 -0.17243982 307.85936665 -0.15875375 310.0390625 -0.14648438 C315.35959336 -0.11355263 320.6797503 -0.06345736 326 0 C326.02312611 8.71844003 326.04091646 17.43686956 326.05181217 26.15533352 C326.05704041 30.20325742 326.06413699 34.25116041 326.07543945 38.29907227 C326.08627043 42.20235971 326.09227728 46.10562699 326.09487724 50.0089283 C326.09673111 51.50133647 326.100351 52.99374348 326.10573006 54.48614311 C326.11294331 56.56948139 326.11399083 58.65273531 326.11352539 60.73608398 C326.115746 61.92411118 326.11796661 63.11213837 326.12025452 64.33616638 C326 67 326 67 325 68 C323.43827255 68.08685603 321.87270656 68.10702219 320.30859375 68.09765625 C319.36435547 68.09443359 318.42011719 68.09121094 317.44726562 68.08789062 C316.45404297 68.07951172 315.46082031 68.07113281 314.4375 68.0625 C313.44041016 68.05798828 312.44332031 68.05347656 311.41601562 68.04882812 C308.94395151 68.03700007 306.47200482 68.02051849 304 68 C303.72845093 69.00728149 303.72845093 69.00728149 303.45141602 70.03491211 C301.68201078 76.56517125 299.84105318 83.07019644 297.9375 89.5625 C297.64367432 90.56772705 297.34984863 91.5729541 297.04711914 92.60864258 C295.21555845 98.86878099 293.37468924 105.12616455 291.53125 111.3828125 C290.88458141 113.57790506 290.23792874 115.7730023 289.59130859 117.96810913 C289.15420719 119.45187496 288.7170323 120.93561915 288.27978516 122.41934204 C285.79523171 130.85253433 283.33236518 139.2908144 280.9375 147.75 C280.2365709 150.2069012 279.53307674 152.66304248 278.82763672 155.11865234 C278.20759019 157.2772922 277.5897993 159.43658019 276.97314453 161.59619141 C276.02099133 164.92404283 275.05458843 168.24754932 274.08108521 171.56921387 C273.52013521 173.49343053 272.97066563 175.42098256 272.42163086 177.34863281 C268.30954448 191.29340229 263.46913329 202.40275443 250.82421875 210.37109375 C240.4716428 215.85896411 227.87804603 216.87237818 216.5625 213.875 C204.89591974 209.68599299 196.9592496 201.64542129 191.63061523 190.71582031 C188.29294163 183.35729207 185.91684372 175.59609984 183.375 167.9375 C182.77024378 166.13561094 182.16459933 164.33401978 181.55810547 162.53271484 C180.62837321 159.77066554 179.69939194 157.00838539 178.77383423 154.24493408 C176.69127385 148.029916 174.57063484 141.82914126 172.421875 135.63671875 C172.14070831 134.82490646 171.85954163 134.01309418 171.56985474 133.17668152 C170.49198363 130.06490472 169.41407429 126.95316628 168.32879639 123.84396362 C167.59265573 121.7333235 166.8621444 119.62081317 166.1328125 117.5078125 C165.71918457 116.31816895 165.30555664 115.12852539 164.87939453 113.90283203 C164 111 164 111 164 108 C163.34 108 162.68 108 162 108 C161.75016357 109.24225342 161.50032715 110.48450684 161.24291992 111.7644043 C159.94732199 117.57791575 158.04991082 123.14299655 156.11328125 128.76953125 C155.73318405 129.88575363 155.35308685 131.00197601 154.96147156 132.15202332 C153.74959452 135.70705158 152.53107203 139.25976182 151.3125 142.8125 C150.51325293 145.15545609 149.71442128 147.49855393 148.91601562 149.84179688 C146.98253261 155.51153326 145.03508301 161.17635759 143.08355713 166.83990479 C142.05593085 169.83688278 141.04239875 172.83824683 140.03271484 175.84130859 C139.43216053 177.60651146 138.83142388 179.3716523 138.23046875 181.13671875 C137.97437332 181.91054398 137.71827789 182.6843692 137.454422 183.48164368 C133.44191111 195.16866294 127.11110926 205.10566856 115.875 210.9375 C105.80807686 215.66590329 94.39442227 216.81484108 83.578125 214.16015625 C72.11744701 209.75106122 63.1843801 202.19004813 58 191 C55.92646168 185.35743024 54.3686603 179.55756639 52.77685547 173.76513672 C51.46245224 169.08665432 50.0008242 164.45403903 48.5625 159.8125 C45.77588411 150.7184036 43.1692591 141.58145413 40.62744141 132.41625977 C38.61805556 125.17786562 36.55003422 117.95894295 34.4375 110.75 C34.14979736 109.76636475 33.86209473 108.78272949 33.56567383 107.76928711 C32.42528871 103.87041594 31.28464569 99.97162089 30.14257812 96.07324219 C29.31988094 93.25840183 28.50299487 90.44193422 27.6875 87.625 C27.44507568 86.79967773 27.20265137 85.97435547 26.95288086 85.12402344 C25.32203713 79.46705226 24.0736725 73.78789717 23 68 C22.3387915 68.00523682 21.67758301 68.01047363 20.99633789 68.01586914 C18.01840149 68.03657656 15.04048018 68.04964012 12.0625 68.0625 C10.50112305 68.07506836 10.50112305 68.07506836 8.90820312 68.08789062 C7.91884766 68.09111328 6.92949219 68.09433594 5.91015625 68.09765625 C4.53549194 68.10551147 4.53549194 68.10551147 3.13305664 68.11352539 C1 68 1 68 0 67 C-0.09417773 64.91380978 -0.11742878 62.82439523 -0.11352539 60.73608398 C-0.11367142 60.08244873 -0.11381744 59.42881348 -0.1139679 58.75537109 C-0.11326883 56.58557872 -0.10547678 54.41587121 -0.09765625 52.24609375 C-0.09579205 50.74536689 -0.09436816 49.24463943 -0.09336853 47.74391174 C-0.08954352 43.78681774 -0.0797134 39.82976022 -0.06866455 35.87268066 C-0.05845006 31.83765151 -0.05387083 27.80261647 -0.04882812 23.76757812 C-0.03809111 15.84503531 -0.0210149 7.92252219 0 0 Z " fill="#FED100" transform="translate(122,556)"/>
<path d="M0 0 C7.5075 -0.04125 15.015 -0.0825 22.75 -0.125 C25.09448242 -0.14320801 27.43896484 -0.16141602 29.85449219 -0.18017578 C48.45313796 -0.26677137 63.25224753 0.7607802 77.8671875 13.484375 C84.24761171 21.01000355 87.92918442 30.01577304 91.625 39.0625 C92.16618605 40.37132627 92.70795604 41.67991121 93.25024414 42.98828125 C94.81421578 46.77027464 96.36577483 50.55725695 97.91448975 54.34552002 C99.09332185 57.22820695 100.27432585 60.1099984 101.45556641 62.99169922 C117.55317835 102.27400886 117.55317835 102.27400886 125 121 C129.18446341 113.15711318 132.52649994 105.01706263 135.81689453 96.77346802 C137.44552421 92.69630101 139.0909524 88.62590902 140.734375 84.5546875 C141.07811157 83.70236038 141.42184814 82.85003326 141.77600098 81.97187805 C145.44751499 72.87522233 149.15931339 63.79537718 152.90148926 54.72756958 C153.62379473 52.97520225 154.34414855 51.22202897 155.06237793 49.46798706 C170.76257165 11.13819314 170.76257165 11.13819314 189.42578125 2.93359375 C197.19203775 0.15705645 205.10978003 -0.15325773 213.27734375 -0.1328125 C214.12929825 -0.13376923 214.98125275 -0.13472595 215.85902405 -0.13571167 C217.64307734 -0.13638748 219.42713318 -0.13457532 221.21118164 -0.13037109 C223.95399381 -0.12496751 226.69664567 -0.13036003 229.43945312 -0.13671875 C231.1770837 -0.13605877 232.91471417 -0.13477928 234.65234375 -0.1328125 C235.47516342 -0.13483673 236.29798309 -0.13686096 237.14573669 -0.13894653 C242.88501802 -0.11498198 242.88501802 -0.11498198 244 1 C244.09943972 3.08075409 244.12799596 5.16491848 244.12939453 7.24804688 C244.13202301 8.22609032 244.13202301 8.22609032 244.13470459 9.22389221 C244.13912204 11.38887153 244.13618551 13.55376979 244.1328125 15.71875 C244.13348557 17.21708187 244.13445562 18.71541363 244.13571167 20.21374512 C244.1371885 23.35783933 244.13503458 26.50190517 244.13037109 29.64599609 C244.1246738 33.68486539 244.12795289 37.72366824 244.13394356 41.7625351 C244.13754958 44.8576508 244.13641039 47.95275065 244.13381577 51.04786682 C244.13314661 52.53748075 244.13397452 54.0270961 244.13629532 55.51670837 C244.13882253 57.59516235 244.13498033 59.67350731 244.12939453 61.75195312 C244.12859894 62.93696411 244.12780334 64.1219751 244.12698364 65.34289551 C244 68 244 68 243 69 C241.22130274 69.15764405 239.43681524 69.25100677 237.65234375 69.31640625 C236.57275391 69.35830078 235.49316406 69.40019531 234.38085938 69.44335938 C233.24455078 69.48267578 232.10824219 69.52199219 230.9375 69.5625 C229.79732422 69.60568359 228.65714844 69.64886719 227.48242188 69.69335938 C224.65507805 69.79982839 221.82764262 69.90184207 219 70 C218.62939453 70.916604 218.25878906 71.83320801 217.87695312 72.77758789 C209.69963004 92.99703695 201.47315793 113.19555273 193.18569946 133.37010193 C192.68192276 134.59649132 192.68192276 134.59649132 192.16796875 135.84765625 C191.83026459 136.66972061 191.49256042 137.49178497 191.1446228 138.33876038 C187.46741038 147.29254195 183.80363039 156.25180943 180.14028931 165.21127319 C164.1237437 204.38183266 164.1237437 204.38183266 156.6318512 222.58294678 C154.74461587 227.17280146 152.87952164 231.77088807 151.02734375 236.375 C143.32723231 255.41745309 135.41485957 270.71320532 116 280 C106.23415941 283.63937427 97.20599626 284.55505302 86.8515625 284.390625 C85.62719482 284.38659668 84.40282715 284.38256836 83.14135742 284.37841797 C78.63574907 284.35773594 74.13035696 284.30189392 69.625 284.25 C59.51875 284.1675 49.4125 284.085 39 284 C39 261.56 39 239.12 39 216 C56.16 215.67 73.32 215.34 91 215 C75.93793999 178.00162326 75.93793999 178.00162326 60.83267212 141.02087402 C59.75107388 138.3776244 58.66983632 135.73422743 57.58862305 133.09082031 C54.13442058 124.64765845 50.67522577 116.20658309 47.2069397 107.76919556 C45.52176442 103.66875001 43.83860003 99.56748051 42.15563965 95.46612549 C41.35025979 93.505055 40.54388018 91.54439476 39.7364502 89.58416748 C38.6226337 86.88002639 37.51213809 84.17454377 36.40234375 81.46875 C35.90531197 80.26582809 35.90531197 80.26582809 35.39823914 79.03860474 C35.09529434 78.29818939 34.79234955 77.55777405 34.48022461 76.79492188 C34.21696884 76.15486206 33.95371307 75.51480225 33.68247986 74.85534668 C33 73 33 73 32 69 C21.44 69 10.88 69 0 69 C0 46.23 0 23.46 0 0 Z " fill="#FED100" transform="translate(698,555)"/>
<path d="M0 0 C7.3425 -0.0825 14.685 -0.165 22.25 -0.25 C25.68841309 -0.30462402 25.68841309 -0.30462402 29.19628906 -0.36035156 C45.85998851 -0.51539928 58.22460405 1.60495184 70.796875 13.37890625 C75.93351441 18.59770332 79.1148586 24.76096412 82.5 31.1875 C83.18237631 32.45590941 83.86632719 33.72347286 84.55175781 34.99023438 C85.98032704 37.63384428 87.40203129 40.28096469 88.81835938 42.93115234 C92.07026517 49.00772626 95.38094656 55.05195177 98.70239258 61.09072876 C99.73041355 62.96430357 100.75133944 64.84161036 101.77148438 66.71948242 C102.39861328 67.86392822 103.02574219 69.00837402 103.671875 70.1875 C104.49316895 71.69376953 104.49316895 71.69376953 105.33105469 73.23046875 C107.01949911 76.0323578 108.89998252 78.49600095 111 81 C111.32572998 80.39341553 111.65145996 79.78683105 111.98706055 79.16186523 C118.66481542 66.74168379 125.40436481 54.36278809 132.39648438 42.11621094 C134.80926764 37.8901756 137.19959097 33.66271846 139.46484375 29.35546875 C146.76564105 15.55631549 155.35793945 6.84609744 170 1 C173.31871671 0.20820203 176.38309106 -0.12291159 179.7902832 -0.11352539 C180.72360474 -0.11340454 181.65692627 -0.11328369 182.61853027 -0.11315918 C183.5861731 -0.10804321 184.55381592 -0.10292725 185.55078125 -0.09765625 C186.45002319 -0.09664917 187.34926514 -0.09564209 188.27575684 -0.09460449 C191.62135094 -0.08938911 194.96692681 -0.07542787 198.3125 -0.0625 C205.799375 -0.041875 213.28625 -0.02125 221 0 C221 22.44 221 44.88 221 68 C208.625 68.495 208.625 68.495 196 69 C191.48648754 72.97746585 190.50936772 73.92769458 188.5625 79.0625 C187.60731825 81.07441595 186.64895305 83.08482342 185.6875 85.09375 C185.24792969 86.09277344 184.80835938 87.09179688 184.35546875 88.12109375 C182.01772514 93.08627255 178.85573012 97.50181028 175.71508789 101.98657227 C174.36394766 103.95809896 174.36394766 103.95809896 173 107 C174.11347974 110.7023581 175.99982742 113.84949855 178.01171875 117.1328125 C178.60533203 118.10476563 179.19894531 119.07671875 179.81054688 120.078125 C180.42994141 121.08359375 181.04933594 122.0890625 181.6875 123.125 C182.28755859 124.10726562 182.88761719 125.08953125 183.50585938 126.1015625 C184.71979965 128.08350581 185.94809386 130.05672728 187.19042969 132.02099609 C189 135 189 135 190.58300781 138.15478516 C193.49007207 143.83623514 193.49007207 143.83623514 198.78295898 146.93896484 C202.03564845 147.27185509 205.10953892 147.27289931 208.375 147.125 C210.54946084 147.10470165 212.72394114 147.08636044 214.8984375 147.0703125 C215.85411621 147.03695801 216.80979492 147.00360352 217.79443359 146.96923828 C220 147 220 147 221 148 C221.0942174 150.11681317 221.11742761 152.23680758 221.11352539 154.35571289 C221.11367142 155.01910172 221.11381744 155.68249054 221.1139679 156.36598206 C221.11326881 158.56823956 221.10547665 160.77041345 221.09765625 162.97265625 C221.09579206 164.49580336 221.09436816 166.01895107 221.09336853 167.542099 C221.08954346 171.55837651 221.07971328 175.57461808 221.06866455 179.59088135 C221.05845019 183.68623366 221.05387086 187.78159176 221.04882812 191.87695312 C221.038091 199.91798528 221.02101472 207.95898817 221 216 C214.9351667 216.07471366 208.87060724 216.12886656 202.80541992 216.16479492 C200.74645311 216.17978857 198.68751773 216.20019033 196.62866211 216.22631836 C179.5186346 216.43786052 164.373304 215.72036864 150.9375 203.6875 C143.02675418 195.22446392 137.82686804 183.89357982 132.82421875 173.55859375 C129.69008354 167.44468116 126.24765475 161.50188799 122.84448242 155.53466797 C120.07188671 150.67232037 117.31117232 145.80358958 114.59375 140.91015625 C114.09552734 140.01562744 113.59730469 139.12109863 113.08398438 138.19946289 C112 136 112 136 112 134 C111.01 134 110.02 134 109 134 C108.75894531 134.65226563 108.51789063 135.30453125 108.26953125 135.9765625 C106.62317815 139.89741572 104.67428079 143.61737587 102.6875 147.375 C102.25308594 148.19863037 101.81867188 149.02226074 101.37109375 149.87084961 C97.32587639 157.48474976 93.10653063 164.9965879 88.83227539 172.48388672 C86.23447657 177.03473594 83.66345768 181.59215094 81.1953125 186.21484375 C80.54079102 187.43095337 80.54079102 187.43095337 79.87304688 188.67163086 C79.07500387 190.16046814 78.28628666 191.6543663 77.50976562 193.15454102 C71.85119866 203.65340178 62.70976449 210.17409382 51.58984375 214.16015625 C41.66768516 217.12206795 31.44385663 216.421426 21.1875 216.25 C10.6996875 216.12625 10.6996875 216.12625 0 216 C0 193.23 0 170.46 0 147 C12.375 146.505 12.375 146.505 25 146 C29.95510053 141.33377707 31.55199457 139.49105669 34.125 133.6875 C34.71667969 132.55248047 35.30835938 131.41746094 35.91796875 130.24804688 C37.09342905 127.98367115 38.22755958 125.69730994 39.31713867 123.39038086 C41.52646295 118.93936008 44.17765488 114.81988343 46.91186523 110.67480469 C48.30529534 108.00619985 48.30529534 108.00619985 47.26879883 105.10888672 C45.74473675 102.19380007 43.943956 99.65284221 42 97 C40.71583386 94.90394369 39.44543675 92.79940195 38.1875 90.6875 C35.99087217 87.14400365 33.76433766 83.62572724 31.48828125 80.1328125 C31.07360596 79.49512939 30.65893066 78.85744629 30.23168945 78.20043945 C29.42351227 76.96166162 28.61098432 75.72570909 27.79370117 74.49291992 C25 70.21943883 25 70.21943883 25 68 C16.75 68 8.5 68 0 68 C0 45.56 0 23.12 0 0 Z " fill="#FED101" transform="translate(721,321)"/>
<path d="M0 0 C11.44826419 8.03329902 18.67677998 20.36688181 21.75 33.9296875 C21.93175781 34.53554688 22.11351562 35.14140625 22.30078125 35.765625 C25.41830973 50.7839796 20.86153525 65.36785469 12.75 77.9296875 C4.41495964 89.18985523 -6.441557 96.2898381 -20.25 98.9296875 C-34.12585859 100.34947472 -46.22835745 97.54305776 -57.25 88.9296875 C-57.86359375 88.49011719 -58.4771875 88.05054688 -59.109375 87.59765625 C-68.34296492 80.50903744 -74.80010909 67.86738141 -76.8671875 56.55078125 C-78.74762526 38.76337509 -76.01162834 24.13669189 -65.40234375 9.35546875 C-48.88240088 -10.62450322 -21.50495616 -13.49660009 0 0 Z " fill="#7E5FA5" transform="translate(598.25,618.0703125)"/>
<path d="M0 0 C10.73544988 8.75352067 17.70005823 21.65093431 19.4921875 35.3203125 C20.99271591 51.33946712 17.88864729 65.56822522 7.78125 78.40625 C2.06170262 85.23070994 -4.09818475 89.77642714 -12.21875 93.40625 C-12.97414063 93.7465625 -13.72953125 94.086875 -14.5078125 94.4375 C-25.1242576 98.37762395 -39.03241055 97.91149792 -49.48046875 93.79296875 C-63.83335591 86.52438824 -72.48251668 75.52385827 -78.25390625 60.7578125 C-82.75454803 46.81628958 -81.15056449 29.64238536 -74.59375 16.65625 C-66.86293638 3.66312513 -55.88307416 -5.5276782 -41.40625 -9.84375 C-26.48933786 -13.12251683 -12.15705894 -8.73253529 0 0 Z " fill="#7E5FA5" transform="translate(601.21875,385.59375)"/>
</svg>
